<svg width="30" height="30" viewBox="0 0 30 30" fill="none" xmlns="http://www.w3.org/2000/svg">
<path d="M4.80505 6.89189C4.80505 6.4618 4.98567 6.04934 5.30716 5.74523C5.62865 5.44111 6.06468 5.27026 6.51934 5.27026C6.974 5.27026 7.41003 5.44111 7.73152 5.74523C8.05301 6.04934 8.23362 6.4618 8.23362 6.89189C8.23362 7.32197 8.05301 7.73443 7.73152 8.03854C7.41003 8.34266 6.974 8.51351 6.51934 8.51351C6.06468 8.51351 5.62865 8.34266 5.30716 8.03854C4.98567 7.73443 4.80505 7.32197 4.80505 6.89189ZM9.94791 6.89189C9.94791 6.4618 10.1285 6.04934 10.45 5.74523C10.7715 5.44111 11.2075 5.27026 11.6622 5.27026C12.1168 5.27026 12.5529 5.44111 12.8744 5.74523C13.1959 6.04934 13.3765 6.4618 13.3765 6.89189C13.3765 7.32197 13.1959 7.73443 12.8744 8.03854C12.5529 8.34266 12.1168 8.51351 11.6622 8.51351C11.2075 8.51351 10.7715 8.34266 10.45 8.03854C10.1285 7.73443 9.94791 7.32197 9.94791 6.89189ZM6.51934 16.6216C6.06468 16.6216 5.62865 16.7925 5.30716 17.0966C4.98567 17.4007 4.80505 17.8132 4.80505 18.2432C4.80505 18.6733 4.98567 19.0858 5.30716 19.3899C5.62865 19.694 6.06468 19.8649 6.51934 19.8649C6.974 19.8649 7.41003 19.694 7.73152 19.3899C8.05301 19.0858 8.23362 18.6733 8.23362 18.2432C8.23362 17.8132 8.05301 17.4007 7.73152 17.0966C7.41003 16.7925 6.974 16.6216 6.51934 16.6216ZM11.6622 16.6216C11.2075 16.6216 10.7715 16.7925 10.45 17.0966C10.1285 17.4007 9.94791 17.8132 9.94791 18.2432C9.94791 18.6733 10.1285 19.0858 10.45 19.3899C10.7715 19.694 11.2075 19.8649 11.6622 19.8649C12.1168 19.8649 12.5529 19.694 12.8744 19.3899C13.1959 19.0858 13.3765 18.6733 13.3765 18.2432C13.3765 17.8132 13.1959 17.4007 12.8744 17.0966C12.5529 16.7925 12.1168 16.6216 11.6622 16.6216Z" fill="black"/>
<path fill-rule="evenodd" clip-rule="evenodd" d="M4.71429 0C3.46398 0 2.26489 0.469834 1.38079 1.30615C0.496686 2.14246 4.71826e-06 3.27674 4.71826e-06 4.45946V9.32432C4.71826e-06 10.6022 0.569147 11.7551 1.47943 12.5676C1.01153 12.9838 0.638834 13.4863 0.384373 14.0441C0.129912 14.602 -0.000905581 15.2033 4.71826e-06 15.8108V20.6757C4.71826e-06 21.8584 0.496686 22.9927 1.38079 23.829C2.26489 24.6653 3.46398 25.1351 4.71429 25.1351H13.8051V27.5676H3.09086C2.74987 27.5676 2.42284 27.6957 2.18172 27.9238C1.94061 28.1519 1.80515 28.4612 1.80515 28.7838C1.80515 29.1063 1.94061 29.4157 2.18172 29.6438C2.42284 29.8719 2.74987 30 3.09086 30H27.0909C27.4318 30 27.7589 29.8719 28 29.6438C28.2411 29.4157 28.3766 29.1063 28.3766 28.7838C28.3766 28.4612 28.2411 28.1519 28 27.9238C27.7589 27.6957 27.4318 27.5676 27.0909 27.5676H16.3766V25.1351H25.2857C25.9048 25.1351 26.5178 25.0198 27.0898 24.7957C27.6618 24.5716 28.1815 24.2431 28.6192 23.829C29.057 23.4149 29.4042 22.9233 29.6411 22.3822C29.8781 21.8412 30 21.2613 30 20.6757V15.8108C30 14.533 29.4326 13.38 28.5223 12.5676C28.9899 12.1512 29.3622 11.6486 29.6164 11.0908C29.8706 10.533 30.0011 9.93176 30 9.32432V4.45946C30 3.87383 29.8781 3.29394 29.6411 2.7529C29.4042 2.21185 29.057 1.72024 28.6192 1.30615C28.1815 0.892046 27.6618 0.563565 27.0898 0.339456C26.5178 0.115347 25.9048 0 25.2857 0H4.71429ZM4.71429 11.3514H25.2857C26.4686 11.3514 27.4286 10.4432 27.4286 9.32432V4.45946C27.4286 3.34054 26.4686 2.43243 25.2857 2.43243H4.71429C3.53143 2.43243 2.57143 3.34054 2.57143 4.45946V9.32432C2.57143 10.4432 3.53143 11.3514 4.71429 11.3514ZM4.71429 13.7838C3.53143 13.7838 2.57143 14.6919 2.57143 15.8108V20.6757C2.57143 21.7946 3.53143 22.7027 4.71429 22.7027H25.2857C26.4686 22.7027 27.4286 21.7946 27.4286 20.6757V15.8108C27.4286 14.6919 26.4686 13.7838 25.2857 13.7838H4.71429Z" fill="black"/>
</svg>
