<svg width="30" height="30" viewBox="0 0 30 30" fill="none" xmlns="http://www.w3.org/2000/svg">
<path d="M8.04105 26.2117C7.53646 25.0446 7.10517 23.8567 6.74717 22.6477C6.39072 21.4388 6.1307 20.2131 5.96714 18.9707L2.93496 20.5435C2.72819 20.6596 2.57234 20.7924 2.46741 20.9421C2.36248 21.0917 2.31078 21.2581 2.31233 21.4412V27.6121C2.31233 27.727 2.36402 27.8078 2.46741 27.8545C2.5708 27.9012 2.68267 27.9012 2.80303 27.8545L8.04105 26.2117ZM14.5452 2.19762C12.2182 4.27555 10.5547 6.41991 9.55482 8.6307C8.5549 10.8415 8.05494 13.2546 8.05494 15.8699C8.05494 17.7348 8.26711 19.5272 8.69146 21.2473C9.11581 22.9673 9.67518 24.5527 10.3696 26.0034H19.6281C20.3225 24.5539 20.8819 22.9685 21.3062 21.2473C21.7306 19.5261 21.9428 17.7336 21.9428 15.8699C21.9428 13.2546 21.4428 10.8415 20.4429 8.6307C19.4429 6.41991 17.7795 4.27495 15.4525 2.19583C15.3661 2.1288 15.2928 2.07912 15.2326 2.04681C15.1709 2.01329 15.093 1.99653 14.9988 1.99653C14.9047 1.99653 14.8268 2.01329 14.7651 2.04681C14.7033 2.08032 14.63 2.12999 14.5452 2.19583M14.9988 16.1285C14.0221 16.1285 13.1996 15.8687 12.5314 15.3492C11.8617 14.831 11.5269 14.193 11.5269 13.4353C11.5269 12.6776 11.8617 12.0396 12.5314 11.5214C13.2011 11.0031 14.0236 10.7433 14.9988 10.7421C15.9741 10.7409 16.7965 11.0007 17.4662 11.5214C18.1359 12.0396 18.4708 12.6776 18.4708 13.4353C18.4708 14.193 18.1359 14.831 17.4662 15.3492C16.7965 15.8675 15.9741 16.1273 14.9988 16.1285ZM21.9566 26.2458L27.1947 27.8886C27.3135 27.9353 27.4253 27.9293 27.5303 27.8707C27.6337 27.8132 27.6854 27.727 27.6854 27.6121V21.4789C27.6854 21.2946 27.6329 21.1222 27.528 20.9618C27.4246 20.8002 27.2687 20.662 27.0604 20.5471L24.0306 18.9725C23.867 20.2149 23.6062 21.4466 23.2482 22.6675C22.8918 23.8872 22.4612 25.0788 21.9566 26.2458ZM16.3483 0.42552C19.0533 2.53457 21.0478 4.88361 22.3316 7.47264C23.6155 10.0617 24.2574 12.9242 24.2574 16.0602C24.2574 16.1979 24.2651 16.3415 24.2805 16.4912C24.296 16.6408 24.2882 16.7964 24.2574 16.958L28.2733 19.0568C28.8103 19.3166 29.2323 19.6637 29.5394 20.0982C29.8465 20.5327 30 20.9923 30 21.4771V28.5332C30 29.0479 29.7222 29.4501 29.1667 29.7397C28.6097 30.0294 28.0194 30.0773 27.396 29.8834L20.7993 27.7989H9.15439L2.55768 29.8493C1.93427 30.0432 1.35175 29.9953 0.810129 29.7056C0.268504 29.416 -0.00153651 29.0144 6.57567e-06 28.5009V21.443C6.57567e-06 20.9594 0.145829 20.4998 0.437473 20.0641C0.729117 19.6296 1.14344 19.2825 1.68043 19.0227L5.7403 16.9221V16.0602C5.7403 12.9242 6.38223 10.0617 7.66608 7.47264C8.94839 4.88361 10.9428 2.53457 13.6494 0.42552C13.83 0.2759 14.0383 0.167575 14.2744 0.100545C14.5105 0.0335149 14.752 0 14.9988 0C15.2457 0 15.4872 0.0335149 15.7233 0.100545C15.9594 0.167575 16.1677 0.277097 16.3483 0.42552Z" fill="black"/>
</svg>
