<svg width="42" height="42" viewBox="0 0 42 42" fill="none" xmlns="http://www.w3.org/2000/svg">
<path d="M1 21C1 23.6264 1.51732 26.2272 2.52241 28.6537C3.5275 31.0802 5.00069 33.285 6.85786 35.1421C8.71504 36.9993 10.9198 38.4725 13.3463 39.4776C15.7728 40.4827 18.3736 41 21 41C23.6264 41 26.2272 40.4827 28.6537 39.4776C31.0802 38.4725 33.285 36.9993 35.1421 35.1421C36.9993 33.285 38.4725 31.0802 39.4776 28.6537C40.4827 26.2272 41 23.6264 41 21C41 15.6957 38.8929 10.6086 35.1421 6.85786C31.3914 3.10714 26.3043 1 21 1C15.6957 1 10.6086 3.10714 6.85786 6.85786C3.10714 10.6086 1 15.6957 1 21Z" stroke="white" stroke-width="2" stroke-linecap="round" stroke-linejoin="round"/>
<path d="M21 9.88892V21L27.6667 27.6667" stroke="white" stroke-width="2" stroke-linecap="round" stroke-linejoin="round"/>
</svg>
