<svg width="60" height="50" viewBox="0 0 60 50" fill="none" xmlns="http://www.w3.org/2000/svg">
<path d="M0 0V4.54545H35.625V38.6364H24.0825C23.2463 34.7295 20.3475 31.8182 16.875 31.8182C13.4025 31.8182 10.5037 34.7295 9.6675 38.6364H7.5V27.2727H3.75V43.1818H9.6675C10.5037 47.0886 13.4025 50 16.875 50C20.3475 50 23.2463 47.0886 24.0825 43.1818H39.6675C40.5037 47.0886 43.4025 50 46.875 50C50.3475 50 53.2463 47.0886 54.0825 43.1818H60V24.6455L59.8819 24.2886L56.1319 10.6523L55.725 9.09091H39.375V0H0ZM1.875 9.09091V13.6364H18.75V9.09091H1.875ZM39.375 13.6364H53.0269L56.25 25.2841V38.6364H54.0825C53.2463 34.7295 50.3475 31.8182 46.875 31.8182C43.4025 31.8182 40.5037 34.7295 39.6675 38.6364H39.375V13.6364ZM3.75 18.1818V22.7273H15V18.1818H3.75ZM16.875 36.3636C18.9694 36.3636 20.625 38.3705 20.625 40.9091C20.625 43.4477 18.9694 45.4545 16.875 45.4545C14.7806 45.4545 13.125 43.4477 13.125 40.9091C13.125 38.3705 14.7806 36.3636 16.875 36.3636ZM46.875 36.3636C48.9694 36.3636 50.625 38.3705 50.625 40.9091C50.625 43.4477 48.9694 45.4545 46.875 45.4545C44.7806 45.4545 43.125 43.4477 43.125 40.9091C43.125 38.3705 44.7806 36.3636 46.875 36.3636Z" fill="black"/>
</svg>
