<svg width="30" height="25" viewBox="0 0 30 25" fill="none" xmlns="http://www.w3.org/2000/svg">
<path d="M7.5 25C5.43182 25 3.665 24.1797 2.19955 22.5391C0.734091 20.8984 0.000909091 18.8932 0 16.5234C0 14.4922 0.534091 12.6823 1.60227 11.0938C2.67045 9.50521 4.06818 8.48958 5.79545 8.04687C6.36364 5.65104 7.5 3.71094 9.20455 2.22656C10.9091 0.742188 12.8409 0 15 0C17.6591 0 19.915 1.06146 21.7677 3.18438C23.6205 5.30729 24.5464 7.89167 24.5455 10.9375C26.1136 11.1458 27.415 11.9208 28.4495 13.2625C29.4841 14.6042 30.0009 16.1729 30 17.9688C30 19.9219 29.4036 21.5823 28.2109 22.95C27.0182 24.3177 25.5691 25.001 23.8636 25H7.5ZM7.5 21.875H23.8636C24.8182 21.875 25.625 21.4974 26.2841 20.7422C26.9432 19.987 27.2727 19.0625 27.2727 17.9688C27.2727 16.875 26.9432 15.9505 26.2841 15.1953C25.625 14.4401 24.8182 14.0625 23.8636 14.0625H21.8182V10.9375C21.8182 8.77604 21.1532 6.93333 19.8232 5.40937C18.4932 3.88542 16.8855 3.12396 15 3.125C13.1145 3.12604 11.5068 3.88802 10.1768 5.41094C8.84682 6.93385 8.18182 8.77604 8.18182 10.9375H7.5C6.18182 10.9375 5.05682 11.4714 4.125 12.5391C3.19318 13.6068 2.72727 14.8958 2.72727 16.4062C2.72727 17.9167 3.19318 19.2057 4.125 20.2734C5.05682 21.3411 6.18182 21.875 7.5 21.875Z" fill="black"/>
</svg>
