<svg width="50" height="50" viewBox="0 0 50 50" fill="none" xmlns="http://www.w3.org/2000/svg">
<path d="M3.125 11.9V44.9531C3.125 45.5135 3.30521 45.974 3.66562 46.3344C4.02604 46.6948 4.4875 46.875 5.05 46.875H44.9531C45.5135 46.875 45.974 46.6948 46.3344 46.3344C46.6948 45.974 46.875 45.5135 46.875 44.9531V11.9H34.375V28.9937C34.375 29.9521 33.9802 30.6812 33.1906 31.1812C32.401 31.6812 31.5854 31.7104 30.7438 31.2687L25 28.425L19.2531 31.2687C18.4135 31.7083 17.599 31.6792 16.8094 31.1812C16.0198 30.6812 15.625 29.9521 15.625 28.9937V11.9H3.125ZM5.05 50C3.65 50 2.45833 49.5083 1.475 48.525C0.491667 47.5417 0 46.351 0 44.9531V10.8938C0 10.2854 0.0968748 9.7125 0.290625 9.175C0.484375 8.6375 0.776042 8.14271 1.16563 7.69062L6.03438 1.84688C6.48646 1.23646 7.05208 0.776042 7.73125 0.465626C8.41042 0.155209 9.13854 0 9.91562 0H39.9656C40.7406 0 41.4781 0.155209 42.1781 0.465626C42.8781 0.776042 43.4542 1.23542 43.9062 1.84375L48.8344 7.8125C49.224 8.26458 49.5156 8.76979 49.7094 9.32812C49.9031 9.88438 50 10.4677 50 11.0781V44.9531C50 46.349 49.5083 47.5396 48.525 48.525C47.5417 49.5083 46.351 50 44.9531 50H5.05ZM4.3125 8.775H45.625L41.4688 3.78125C41.2667 3.58125 41.0354 3.42188 40.775 3.30313C40.5146 3.18438 40.2438 3.125 39.9625 3.125H9.975C9.69583 3.125 9.425 3.18542 9.1625 3.30625C8.9 3.42708 8.67083 3.5875 8.475 3.7875L4.3125 8.775ZM18.7469 11.9V28.0031L24.9969 24.8781L31.2469 28.0031V11.9031L18.7469 11.9Z" fill="black"/>
</svg>
