<svg width="62" height="62" viewBox="0 0 62 62" fill="none" xmlns="http://www.w3.org/2000/svg">
<path d="M48.9378 19.1201L50.3999 17.7281C51.5641 16.6217 53.1433 16 54.79 15.9998C56.4367 15.9995 58.016 16.6206 59.1807 17.7266C60.3453 18.8325 60.9997 20.3327 61 21.897C61.0003 23.4614 60.3464 24.9617 59.1822 26.0681L57.7201 27.4601M48.9378 19.1201C48.9378 19.1201 49.121 22.0721 51.8652 24.6791C54.6095 27.2861 57.7201 27.4601 57.7201 27.4601M48.9378 19.1201L35.4849 31.9001C34.5691 32.7641 34.1144 33.1991 33.7228 33.6761C33.2596 34.2401 32.8659 34.8461 32.5417 35.4941C32.2669 36.0401 32.0648 36.6191 31.6575 37.7801L30.3532 41.5001L29.9301 42.7031M57.7201 27.4601L44.2672 40.2401C43.3514 41.1101 42.8966 41.5421 42.3945 41.9141C41.8008 42.3541 41.1629 42.7281 40.4808 43.0361C39.906 43.2971 39.2966 43.4891 38.0744 43.8761L34.1586 45.1151L32.8922 45.5171M29.9301 42.7031L29.51 43.9091C29.4122 44.189 29.3983 44.4893 29.4698 44.7763C29.5413 45.0633 29.6955 45.3258 29.915 45.5344C30.1346 45.7429 30.4108 45.8894 30.713 45.9573C31.0151 46.0253 31.3312 46.012 31.6259 45.9191L32.8922 45.5171M29.9301 42.7031L32.8922 45.5171" stroke="black" stroke-width="1.5"/>
<path d="M16.7898 34H24.6847M16.7898 22H37.3165M16.7898 46H21.5267M1 37V25C1 13.687 1 8.029 4.70113 4.516C8.40226 1.003 14.355 1 26.2637 1H32.5796C44.4883 1 50.4442 1 54.1421 4.516M57.8433 37C57.8433 48.313 57.8433 53.971 54.1421 57.484M54.1421 57.484C50.4442 61 44.4883 61 32.5796 61H26.2637C14.355 61 8.3991 61 4.70113 57.484M54.1421 57.484C57.1233 54.655 57.7012 50.44 57.8148 43" stroke="black" stroke-width="1.5" stroke-linecap="round"/>
</svg>
