<svg width="50" height="50" viewBox="0 0 50 50" fill="none" xmlns="http://www.w3.org/2000/svg">
<path d="M21.1161 6.03319C17.9487 6.03319 15.095 6.90096 12.5551 8.63651C10.0151 10.3721 8.19306 12.6466 7.08899 15.46C6.78733 16.2142 6.29764 16.7803 5.61991 17.1584C4.94218 17.5365 4.2001 17.6491 3.39366 17.4962C2.58723 17.3434 1.9457 16.9543 1.46908 16.3288C0.992458 15.7034 0.879839 15.0367 1.13122 14.3288C2.48869 10.1056 4.97738 6.66165 8.59728 3.99699C12.2172 1.33234 16.3901 1.0402e-05 21.1161 1.0402e-05C24.0825 1.0402e-05 26.8607 0.565118 29.451 1.69533C32.0412 2.82555 34.2906 4.37205 36.1991 6.33485V3.0166C36.1991 2.1619 36.4887 1.44596 37.0679 0.868789C37.6471 0.291614 38.363 0.00202146 39.2157 1.0402e-05C40.0684 -0.00200066 40.7853 0.287592 41.3665 0.868789C41.9477 1.44999 42.2363 2.16592 42.2323 3.0166V15.083C42.2323 15.9377 41.9427 16.6546 41.3635 17.2338C40.7843 17.813 40.0684 18.1016 39.2157 18.0996H27.1493C26.2946 18.0996 25.5787 17.81 25.0015 17.2308C24.4243 16.6516 24.1347 15.9357 24.1327 15.083C24.1307 14.2303 24.4203 13.5143 25.0015 12.9352C25.5827 12.356 26.2986 12.0664 27.1493 12.0664H33.1825C31.7245 10.2564 29.9779 8.7984 27.9427 7.69232C25.9075 6.58623 23.632 6.03319 21.1161 6.03319ZM21.1161 42.2323C18.1498 42.2323 15.3725 41.6672 12.7843 40.537C10.1961 39.4067 7.9457 37.8602 6.03318 35.8974V39.2157C6.03318 40.0704 5.74359 40.7873 5.1644 41.3665C4.58522 41.9457 3.86928 42.2343 3.01659 42.2323C2.1639 42.2303 1.44796 41.9407 0.868779 41.3635C0.289593 40.7863 0 40.0704 0 39.2157V27.1493C0 26.2946 0.289593 25.5787 0.868779 25.0015C1.44796 24.4243 2.1639 24.1347 3.01659 24.1327H15.083C15.9377 24.1327 16.6546 24.4223 17.2338 25.0015C17.813 25.5807 18.1016 26.2966 18.0995 27.1493C18.0975 28.002 17.8079 28.719 17.2308 29.3002C16.6536 29.8814 15.9377 30.1699 15.083 30.1659H9.04977C10.5078 31.9759 12.2554 33.4339 14.2926 34.54C16.3298 35.6461 18.6043 36.1991 21.1161 36.1991C24.2333 36.1991 27.0367 35.3695 29.5264 33.7104C32.0161 32.0513 33.8381 29.8643 34.9925 27.1493C35.3444 26.3449 35.8602 25.7034 36.54 25.2247C37.2197 24.7461 37.9859 24.5832 38.8386 24.7361C39.6933 24.9372 40.3218 25.3896 40.724 26.0935C41.1262 26.7974 41.2016 27.5515 40.9502 28.356C40.5983 29.3615 40.183 30.3047 39.7044 31.1855C39.2257 32.0664 38.6606 32.9331 38.009 33.7858L49.1704 44.9472C49.7235 45.5002 50 46.2041 50 47.0588C50 47.9135 49.7235 48.6174 49.1704 49.1704C48.6174 49.7235 47.9135 50 47.0588 50C46.2041 50 45.5002 49.7235 44.9472 49.1704L33.7858 38.0091C31.9759 39.3665 30.003 40.4103 27.8673 41.1403C25.7315 41.8703 23.4811 42.2343 21.1161 42.2323Z" fill="black"/>
</svg>
