<svg width="30" height="26" viewBox="0 0 30 26" fill="none" xmlns="http://www.w3.org/2000/svg">
<path fill-rule="evenodd" clip-rule="evenodd" d="M10.0744 0.292183C10.2706 0.105089 10.5366 0 10.814 0C11.0913 0 11.3573 0.105089 11.5535 0.292183L14.3442 2.95638C14.4904 3.0961 14.5899 3.27404 14.6302 3.46773C14.6705 3.66141 14.6498 3.86216 14.5706 4.04461C14.4915 4.22706 14.3575 4.38303 14.1856 4.49282C14.0137 4.60261 13.8115 4.6613 13.6047 4.66147H10.814C8.50102 4.66147 6.28282 5.53863 4.64732 7.09999C3.01183 8.66135 2.09302 10.779 2.09302 12.9871C2.09302 15.1952 3.01183 17.3129 4.64732 18.8742C6.28282 20.4356 8.50102 21.3127 10.814 21.3127H11.5116C11.7892 21.3127 12.0554 21.418 12.2516 21.6054C12.4479 21.7927 12.5581 22.0468 12.5581 22.3118C12.5581 22.5768 12.4479 22.8309 12.2516 23.0183C12.0554 23.2056 11.7892 23.3109 11.5116 23.3109H10.814C7.94591 23.3109 5.19534 22.2232 3.16733 20.2871C1.13932 18.351 0 15.7251 0 12.9871C0 10.2491 1.13932 7.62317 3.16733 5.68709C5.19534 3.751 7.94591 2.66332 10.814 2.66332H11.0791L10.0744 1.70421C9.87844 1.51688 9.76836 1.26295 9.76836 0.998196C9.76836 0.73344 9.87844 0.47951 10.0744 0.292183ZM17.4419 3.6624C17.4419 3.39743 17.5521 3.14331 17.7484 2.95594C17.9446 2.76858 18.2108 2.66332 18.4884 2.66332H19.186C22.0541 2.66332 24.8047 3.751 26.8327 5.68709C28.8607 7.62317 30 10.2491 30 12.9871C30 15.7251 28.8607 18.351 26.8327 20.2871C24.8047 22.2232 22.0541 23.3109 19.186 23.3109H18.9209L19.9256 24.27C20.0284 24.3615 20.1109 24.4718 20.1681 24.5943C20.2253 24.7169 20.256 24.8492 20.2585 24.9833C20.261 25.1174 20.2351 25.2507 20.1825 25.3751C20.1299 25.4995 20.0515 25.6125 19.9521 25.7074C19.8528 25.8022 19.7344 25.877 19.6041 25.9273C19.4738 25.9775 19.3342 26.0022 19.1937 25.9998C19.0532 25.9975 18.9146 25.9681 18.7862 25.9135C18.6579 25.8589 18.5423 25.7802 18.4465 25.682L15.6558 23.0178C15.5096 22.8781 15.4101 22.7002 15.3698 22.5065C15.3295 22.3128 15.3502 22.112 15.4294 21.9296C15.5085 21.7471 15.6425 21.5912 15.8144 21.4814C15.9863 21.3716 16.1885 21.3129 16.3953 21.3127H19.186C21.499 21.3127 23.7172 20.4356 25.3527 18.8742C26.9882 17.3129 27.907 15.1952 27.907 12.9871C27.907 10.779 26.9882 8.66135 25.3527 7.09999C23.7172 5.53863 21.499 4.66147 19.186 4.66147H18.4884C18.2108 4.66147 17.9446 4.55621 17.7484 4.36885C17.5521 4.18149 17.4419 3.92737 17.4419 3.6624Z" fill="black"/>
</svg>
